<svg xmlns="http://www.w3.org/2000/svg" viewBox="0 0 280 90" width="280" height="90"><style>.st1{fill:#fff}</style><title>Forza Logo</title><path d="M50.8 64.6z" opacity=".48" fill="#fff"/><path class="st1" d="M76.4 6.1S61.1 0 42 0h-.2C22.7 0 7.4 6.1 7.4 6.1S-23.8 47.7 42 90C107.8 47.7 76.4 6.1 76.4 6.1zM42 7.7c14 0 23.1 2.4 26.3 3.4.8.3 1.5.8 1.8 1.6l3.3 6.5c-25.2 0-31.4 1.5-31.4 1.5v-13zM19.3 18.3l2.4-8 2.4 8 8.3-.2-6.8 4.8 2.7 7.9-6.6-5-6.6 5 2.7-7.9-6.8-4.8 8.3.2zm54.9 26.3S52.4 48 42.1 58.5v23.8S19.9 65.4 12.2 51.5c0 0 24.5-20 62.8-20-.1.1.7 7.7-.8 13.1zM129 23.8h-5.5v10h9.1v6.9h-9.1V51h7.9v10h-28.3v-9.9h3.6V23.8h-3.6v-9.9h36.6v15.7H129v-5.8zM174.9 44.2c0 3-.4 5.6-1.2 7.8-.8 2.1-2 4-3.6 5.5-1.7 1.5-3.6 2.6-5.7 3.3-4.9 1.4-10.1 1.4-15.1 0-2.2-.7-4.1-1.8-5.8-3.3-1.6-1.5-2.9-3.4-3.6-5.5-.8-2.2-1.2-4.8-1.2-7.8 0-2.9.4-5.5 1.2-7.7.8-2.1 2-4 3.6-5.5 1.7-1.5 3.6-2.6 5.7-3.3 4.9-1.4 10.1-1.4 15.1 0 2.1.7 4.1 1.8 5.7 3.3 1.6 1.5 2.9 3.4 3.6 5.5.9 2.1 1.3 4.7 1.3 7.7zM156.8 51c1.2 0 2-.3 2.6-.9s.9-1.6.9-3v-6c0-1.4-.3-2.4-.9-3-.6-.6-1.5-.9-2.6-.9s-2 .3-2.6.9-.9 1.6-.9 3v6c0 1.4.3 2.4.9 3 .5.7 1.4.9 2.6.9zM176.5 27.3H193v4l.6.2c.3-.6.7-1.2 1.1-1.8.5-.6 1-1.2 1.6-1.6.7-.5 1.4-.9 2.2-1.2.9-.3 1.8-.5 2.8-.4.8 0 1.7.1 2.5.2s1.6.3 2.4.7v10.5c-1.1-.2-2.2-.3-3.3-.4-.9-.1-1.7-.1-2.2-.1-2.6 0-4.6.6-5.8 1.8-1.2 1.2-1.8 3.2-1.8 6.1v5.9h5.5V61h-22v-9.9h2.6V37.3h-2.6l-.1-10zM222.6 37.3h-5.4v2.2h-9V27.3h31.6V36l-14.3 15h5.8v-3.4h9.1V61H208v-9l14.6-14.7zM263.5 56.9c-.4.6-.9 1.1-1.4 1.6-.7.6-1.4 1.2-2.2 1.6-1 .5-2 .9-3 1.3-1.2.3-2.6.5-3.9.5-3.5 0-6.2-.8-8.2-2.4s-3-3.9-3-7c0-3.8 1.8-6.7 5.3-8.7 3.6-1.9 9-2.9 16.3-2.9 0-1.1-.4-2-1.1-2.6-.7-.6-2.2-.9-4.5-.9-2.4 0-4.8.2-7.2.5-2.4.4-4.7.8-6.7 1.2V28.6c2.5-.7 5-1.2 7.5-1.5 3-.4 6.1-.6 9.1-.6 3.2 0 5.9.3 8 .9 2.2.6 3.9 1.5 5.1 2.7 1.3 1.3 2.2 2.9 2.7 4.6.6 2.1.8 4.2.8 6.4V51h2.6v10h-16.5l.3-4.1zm0-10.1c-2.5 0-4.3.2-5.4.5-1.1.3-1.6.9-1.6 1.8 0 1.3 1.1 1.9 3.3 1.9 2.4 0 3.7-1.3 3.7-3.9v-.3zM103.1 68.1h2.1l3.1 8.2 3.1-8.2h2l-4.1 10.4h-2.1l-4.1-10.4zM126.3 68.6c.8.5 1.5 1.1 2 1.9.5.8.7 1.7.7 2.7 0 1-.2 1.9-.7 2.7-.5.8-1.2 1.5-2 1.9-.8.5-1.8.7-2.8.7s-2-.3-2.8-.7-1.5-1.1-2-1.9c-.5-.8-.7-1.7-.7-2.7 0-1 .2-1.9.7-2.7.5-.8 1.2-1.4 2-1.9s1.8-.7 2.8-.7 1.9.3 2.8.7zm-4.5 1.6c-.5.3-1 .8-1.3 1.3-.3.5-.5 1.1-.5 1.8s.2 1.3.5 1.8.7 1 1.3 1.3 1.1.5 1.7.5 1.2-.2 1.7-.5 1-.8 1.2-1.3c.3-.5.5-1.1.5-1.8s-.2-1.3-.5-1.8-.7-1-1.2-1.3-1.1-.5-1.7-.5c-.6 0-1.2.2-1.7.5zM135.1 68.1h7.6v1.7h-5.6v2.6h5v1.7h-5v2.6h5.8v1.7h-7.8V68.1zM148 68.1h8.4v1.8h-3.2v8.6h-2v-8.6H148v-1.8zM169.4 68.8c.6.5 1 1.1 1 1.9 0 .6-.2 1.1-.5 1.5-.3.4-.7.7-1.3.8.7.1 1.2.4 1.6.9.4.5.6 1 .6 1.7 0 .9-.3 1.6-1 2.1s-1.6.8-2.8.8h-4.7V68.1h4.6c1 0 1.8.2 2.5.7zm-1.5 3.2c.3-.2.4-.5.4-.9s-.2-.7-.4-.9c-.3-.2-.7-.3-1.2-.3h-2.5v2.5h2.5c.5-.1.9-.2 1.2-.4zm.2 4.4c.3-.3.5-.6.5-1s-.2-.8-.5-1c-.3-.3-.8-.3-1.5-.3h-2.5v2.8h2.5c.7-.2 1.2-.3 1.5-.5zM184.6 78.5l-.9-2.2h-5l-.9 2.2h-2.1l4.5-10.4h2.1l4.5 10.4h-2.2zm-5.2-3.9h3.6l-1.8-4.4-1.8 4.4zM192.3 68.1h2v8.6h4.5v1.8h-6.4V68.1zM211.1 78.5l-1.8-3.1H206.6v3.1h-2V68.1h4.3c1.3 0 2.4.3 3.1.9.7.6 1.1 1.5 1.1 2.6 0 .8-.2 1.5-.5 2.1-.3.6-.9 1-1.5 1.3l2.3 3.4h-2.3zm-4.5-4.9h2.3c.7 0 1.3-.2 1.7-.5.4-.3.6-.8.6-1.4s-.2-1.1-.6-1.4c-.4-.3-1-.5-1.7-.5h-2.3v3.8zM219.6 68.1h7.6v1.7h-5.6v2.6h5v1.7h-5v2.6h5.8v1.7h-7.8V68.1zM233.7 68.1h2v10.4h-2V68.1zM242 68.1h8.6v1.4l-6.1 7.2h6.1v1.7h-8.8V77l6.1-7.2H242v-1.7zM256.8 68.1h7.6v1.7h-5.6v2.6h5v1.7h-5v2.6h5.8v1.7h-7.8V68.1zM278.1 68.1h1.9v10.4h-1.9l-5.3-7.1v7.1h-1.9V68.1h1.9l5.3 7.2v-7.2z"/></svg>